<?xml version="1.0" encoding="UTF-8" standalone="no"?>
<!-- Created with Inkscape (http://www.inkscape.org/) -->

<svg
   xmlns:dc="http://purl.org/dc/elements/1.1/"
   xmlns:cc="http://creativecommons.org/ns#"
   xmlns:rdf="http://www.w3.org/1999/02/22-rdf-syntax-ns#"
   xmlns:svg="http://www.w3.org/2000/svg"
   xmlns="http://www.w3.org/2000/svg"
   version="1.2"
   width="328"
   height="400"
   id="Layer_1"
   xml:space="preserve"><metadata
   id="metadata3510"><rdf:RDF><cc:Work
       rdf:about=""><dc:format>image/svg+xml</dc:format><dc:type
         rdf:resource="http://purl.org/dc/dcmitype/StillImage" /><dc:title></dc:title></cc:Work></rdf:RDF></metadata><defs
   id="defs3508" />
<path
   d="m 153.65279,86.09308 c 15.66293,-3.843663 21.85096,-29.26186 37.63368,-37.620511 9.66181,24.470445 -26.39228,26.247481 -27.86656,48.769767 28.39177,0.737141 47.96549,-21.798309 89.19405,-16.717302 20.19239,2.487851 32.81593,13.426495 47.38762,23.693816 20.79791,38.87102 25.70779,102.58105 6.96335,146.33563 -7.97691,18.63913 -22.28535,40.66253 -36.23837,58.55004 -15.08506,19.33679 -29.1039,41.43785 -41.80642,52.95568 -8.85885,8.04273 -25.31289,18.78524 -40.42428,18.12708 -14.30843,-0.63183 -23.32524,-8.51792 -36.23837,-4.18722 -6.34336,2.13244 -11.57048,10.59772 -18.1126,12.54456 C 98.169778,399.24632 68.276082,348.15983 54.704792,325.82314 32.077199,288.59753 12.016437,254.32048 10.094605,200.38941 8.7651191,162.88736 21.546615,130.51898 42.160234,109.78689 48.636543,103.2711 62.615893,91.963881 72.817397,88.883685 c 26.484418,-7.976917 48.717113,11.504665 75.267353,5.58121 -30.10431,-19.56056 -99.237595,-8.14804 -91.984656,-61.327489 5.265292,-38.67357 63.881156,-21.548208 82.230696,-1.395302 12.74201,14.005676 12.84732,32.921238 15.322,54.350976 z"
   id="path3504"
   style="fill:none;stroke:#000000;stroke-width:2;stroke-linecap:round;stroke-linejoin:round" />
</svg>
