<?xml version="1.0" encoding="UTF-8" standalone="no"?>
<!-- Created with Inkscape (http://www.inkscape.org/) -->

<svg
   xmlns:dc="http://purl.org/dc/elements/1.1/"
   xmlns:cc="http://creativecommons.org/ns#"
   xmlns:rdf="http://www.w3.org/1999/02/22-rdf-syntax-ns#"
   xmlns:svg="http://www.w3.org/2000/svg"
   xmlns="http://www.w3.org/2000/svg"
   xmlns:xlink="http://www.w3.org/1999/xlink"
   xmlns:sodipodi="http://sodipodi.sourceforge.net/DTD/sodipodi-0.dtd"
   xmlns:inkscape="http://www.inkscape.org/namespaces/inkscape"
   version="1.1"
   width="595.28003"
   height="841.89001"
   viewBox="0 0 595.28 841.89"
   id="Calque_1"
   xml:space="preserve"
   inkscape:version="0.48.0 r9654"
   sodipodi:docname="ghost.svg"><sodipodi:namedview
   pagecolor="#ffffff"
   bordercolor="#666666"
   borderopacity="1"
   objecttolerance="10"
   gridtolerance="10"
   guidetolerance="10"
   inkscape:pageopacity="0"
   inkscape:pageshadow="2"
   inkscape:window-width="1680"
   inkscape:window-height="988"
   id="namedview16"
   showgrid="false"
   inkscape:zoom="0.62003348"
   inkscape:cx="146.39622"
   inkscape:cy="333.13121"
   inkscape:window-x="-8"
   inkscape:window-y="-8"
   inkscape:window-maximized="1"
   inkscape:current-layer="Calque_1" /><metadata
   id="metadata35"><rdf:RDF><cc:Work
       rdf:about=""><dc:format>image/svg+xml</dc:format><dc:type
         rdf:resource="http://purl.org/dc/dcmitype/StillImage" /><dc:title /></cc:Work></rdf:RDF></metadata><defs
   id="defs33" />
<g
   id="g3">
	<defs
   id="defs5">
		<rect
   width="529.849"
   height="801.64697"
   x="32.715"
   y="20.121"
   id="SVGID_1_" />
	</defs>
	<clipPath
   id="SVGID_2_">
		<use
   id="use9"
   style="overflow:visible"
   x="0"
   y="0"
   width="595.28003"
   height="841.89001"
   xlink:href="#SVGID_1_" />
	</clipPath>
	
	
	
	
	
	
	
	
	
	<path
   id="path29"
   style="fill:#ffffff;stroke:#000000"
   d="m 358.611,310.13 c 19.986,0 36.186,-16.196 36.186,-36.183 0,-19.984 -16.199,-36.187 -36.186,-36.187 -19.98,0 -36.184,16.202 -36.184,36.187 10e-4,19.987 16.204,36.183 36.184,36.183 z m -229.902,0 c 19.98,0 36.184,-16.196 36.184,-36.183 0,-19.984 -16.204,-36.187 -36.184,-36.187 -19.987,0 -36.188,16.202 -36.188,36.187 0,19.987 16.201,36.183 36.188,36.183 m 53.98,53.986 c 49.795,0 90.167,-40.375 90.167,-90.169 0,-49.799 -40.372,-90.167 -90.167,-90.167 -49.798,0 -90.167,40.368 -90.167,90.167 -0.001,49.794 40.369,90.169 90.167,90.169 z m 229.903,0 c 49.801,0 90.17,-40.375 90.17,-90.169 0,-49.799 -40.369,-90.167 -90.17,-90.167 -49.795,0 -90.164,40.368 -90.164,90.167 0,49.794 40.369,90.169 90.164,90.169 z m 143.824,-77.111 -0.047,0 c 0.006,-0.654 0.047,-1.3 0.047,-1.958 0,-142.918 -115.854,-258.778 -258.772,-258.778 -142.032,0 -257.283,114.434 -258.713,256.125 l -0.067,0 0,510.305 c 0,12.663 9.286,22.922 20.743,22.922 11.46,0 20.746,-10.259 20.746,-22.922 0,-1.688 0.939,-4.898 0.939,-4.898 3.818,-20.756 23.697,-36.594 47.715,-36.594 23.562,0 43.098,15.256 47.444,35.429 1.796,16.271 17.114,28.985 35.753,28.985 18.869,0 34.311,-13.034 35.794,-29.599 4.625,-20.682 24.726,-36.279 48.944,-36.279 23.433,0 43.046,14.595 48.486,34.274 0.342,17.508 15.67,31.604 34.557,31.604 18.188,0 33.064,-13.075 34.451,-29.676 4.184,-21.188 24.549,-37.296 49.158,-37.296 25.328,0 46.215,17.051 49.537,39.151 0,0 0.869,3.211 0.869,4.898 0,12.663 9.498,22.922 21.213,22.922 11.713,0 21.203,-10.259 21.203,-22.922 z"
   inkscape:connector-curvature="0"
   sodipodi:nodetypes="ssscscssscssscssssssccssccssscscscscscscsssc" />
</g>
</svg>