<?xml version="1.0" encoding="UTF-8" standalone="no"?>
<!-- Created with Inkscape (http://www.inkscape.org/) -->

<svg
   xmlns:dc="http://purl.org/dc/elements/1.1/"
   xmlns:cc="http://creativecommons.org/ns#"
   xmlns:rdf="http://www.w3.org/1999/02/22-rdf-syntax-ns#"
   xmlns:svg="http://www.w3.org/2000/svg"
   xmlns="http://www.w3.org/2000/svg"
   xmlns:sodipodi="http://sodipodi.sourceforge.net/DTD/sodipodi-0.dtd"
   xmlns:inkscape="http://www.inkscape.org/namespaces/inkscape"
   id="svg2"
   version="1.1"
   inkscape:version="0.48.1 "
   width="409"
   height="480"
   sodipodi:docname="bunny.svg">
  <metadata
     id="metadata8">
    <rdf:RDF>
      <cc:Work
         rdf:about="">
        <dc:format>image/svg+xml</dc:format>
        <dc:type
           rdf:resource="http://purl.org/dc/dcmitype/StillImage" />
        <dc:title />
      </cc:Work>
    </rdf:RDF>
  </metadata>
  <defs
     id="defs6" />
  <sodipodi:namedview
     pagecolor="#ffffff"
     bordercolor="#666666"
     borderopacity="1"
     objecttolerance="10"
     gridtolerance="10"
     guidetolerance="10"
     inkscape:pageopacity="0"
     inkscape:pageshadow="2"
     inkscape:window-width="1280"
     inkscape:window-height="748"
     id="namedview4"
     showgrid="false"
     inkscape:zoom="1.2958333"
     inkscape:cx="112.41195"
     inkscape:cy="306.7407"
     inkscape:window-x="-8"
     inkscape:window-y="-8"
     inkscape:window-maximized="1"
     inkscape:current-layer="svg2" />
  <path
     style="fill:#000000"
     d="m 328.88369,465.98808 c 11.92588,-1.89555 39.88074,3.15243 43.45268,-0.92311 13.37715,-15.26314 -18.86891,-24.94202 -33.36064,-22.66696 -9.07037,-10.13645 -11.2975,-50.16414 -4.76341,-65.41952 7.84707,-17.19565 19.16653,-69.58798 21.1618,-97.9478 1.87513,-26.65201 3.58215,-36.09968 9.57868,-53.01395 2.07673,-7.66942 2.72608,-9.55101 8.66654,-12.76411 11.27639,-6.08972 19.73566,-17.17969 23.40779,-30.68727 1.44156,-5.30262 1.54243,-7.32353 0.62056,-12.43308 -2.4552,-13.60811 -22.31697,-43.62005 -34.7443,-52.50002 -9.89746,-7.07225 -17.61517,-9.77469 -39.8472,-13.95298 -30.42757,-6.783416 -27.65398,-47.594096 -46.70683,-72.156346 -7.99616,-9.87154 -21.94987,-23.50933 -28.67959,-24.20506 -7.9659,-0.82352 -29.11942,0.68742 -18.06704,11.37217 11.58697,13.87013 25.4067,41.90107 25.88867,60.2243 -0.15282,0.14508 -45.27881,-55.0806 -48.50772,-59.27185 -6.40746,-8.31714 -15.62486,2.08542 -22.26941,11.22959 -9.2752,11.62077 -7.87651,12.76979 0.0316,24.29476 19.05473,27.52758 56.60217,41.97896 68.4738,72.262696 0.64192,3.22457 -3.57968,26.23273 -6.71411,36.59251 -2.09354,6.91948 -6.09558,12.13717 -10.60657,13.82837 -1.51201,0.56686 -9.71021,2.15127 -18.21822,3.52091 -34.99962,5.6343 -65.70641,15.0015 -95.22874,29.04982 -35.807573,17.03919 -58.431653,37.63838 -74.181633,67.54224 -11.3766,21.60031 -24.5686,65.04874 -25.85477,85.15387 -0.63155,9.87225 -0.8499,10.68377 -3.89289,14.46861 -12.4555802,15.4921 -7.12752,33.64684 13.0359,44.41831 3.83873,2.05068 7.42017,4.97741 9.95975,8.13905 10.53972,13.12133 22.56556,16.35371 66.825933,17.96184 l 25.89346,0.94079 16.52183,5.42 c 11.92947,5.56102 21.14726,5.42 33.98691,5.42 14.92747,0 37.967,1.58046 40.77622,0.12428 5.02464,-2.60454 53.49823,-25.49001 -6.93446,-28.36204 -32.87981,-2.20778 -51.37518,0.47524 -19.20235,-17.30076 26.64058,-14.7215 27.12132,-15.03907 42.56674,-28.11895 9.50521,-8.04943 13.07321,-10.02723 16.10002,-8.9245 2.73796,0.9975 5.62295,8.29064 8.60228,21.74612 2.35983,18.91244 10.25286,26.47796 18.40208,40.93808 9.25514,16.53437 15.94419,24.28672 22.49455,26.07029 3.98723,1.08567 14.27251,1.05177 21.33205,-0.0703 z"
     id="path2987-0"
     inkscape:connector-curvature="0"
     sodipodi:nodetypes="csccsccsssccsccscccsssssssssscccsccssccscc" />
</svg>
