<?xml version="1.0" encoding="UTF-8" standalone="no"?>
<!-- Created with Inkscape (http://www.inkscape.org/) -->

<svg
   xmlns:dc="http://purl.org/dc/elements/1.1/"
   xmlns:cc="http://creativecommons.org/ns#"
   xmlns:rdf="http://www.w3.org/1999/02/22-rdf-syntax-ns#"
   xmlns:svg="http://www.w3.org/2000/svg"
   xmlns="http://www.w3.org/2000/svg"
   xmlns:sodipodi="http://sodipodi.sourceforge.net/DTD/sodipodi-0.dtd"
   xmlns:inkscape="http://www.inkscape.org/namespaces/inkscape"
   version="1.1"
   width="816"
   height="522"
   id="svg2"
   inkscape:version="0.48.1 "
   sodipodi:docname="tortoise.svg">
  <sodipodi:namedview
     pagecolor="#ffffff"
     bordercolor="#666666"
     borderopacity="1"
     objecttolerance="10"
     gridtolerance="10"
     guidetolerance="10"
     inkscape:pageopacity="0"
     inkscape:pageshadow="2"
     inkscape:window-width="640"
     inkscape:window-height="480"
     id="namedview6"
     showgrid="false"
     inkscape:zoom="0.59578544"
     inkscape:cx="408"
     inkscape:cy="261"
     inkscape:window-x="1445"
     inkscape:window-y="267"
     inkscape:window-maximized="0"
     inkscape:current-layer="svg2" />
  <metadata
     id="metadata8">
    <rdf:RDF>
      <cc:Work
         rdf:about="">
        <dc:format>image/svg+xml</dc:format>
        <dc:type
           rdf:resource="http://purl.org/dc/dcmitype/StillImage" />
        <dc:title />
      </cc:Work>
    </rdf:RDF>
  </metadata>
  <defs
     id="defs6" />
  <path
     d="m 413.96634,512.31923 c -30.50703,0.3562 -52.09997,-19.928 -72.21526,-40.2094 -21.14763,-17.1948 -27.70533,-62.0692 -36.13251,-77.2938 -24.30962,11.1039 -58.3514,-2.9308 -86.04266,-7.6139 -32.59694,-7.4786 -58.76838,-41.7661 -85.11657,-49.72512 -31.1183,14.66364 -8.51053,72.53442 -53.055309,58.65512 -27.14601,-2.2482 -70.24857,-10.9017 -68.08584,-46.11711 -1.58274,-34.10237 17.7242,-64.73598 45.75772,-82.82026 -14.08143,-22.24664 -55.8209696,-57.47968 -26,-81.50235 34.80406,-14.53898 67.604999,-34.00346 92.999999,-62.49597 36.08942,-38.750668 83.2817,-65.046598 130.76512,-87.283808 72.93396,-26.3893598 159.14552,-27.1043498 225.96909,16.19099 47.58042,27.64835 77.61749,74.779928 109.3792,117.980268 17.24571,34.0649 26.9823,-9.82369 39.98354,-23.72639 18.07845,-30.71796 55.87429,-52.124648 91.3367,-38.97195 27.66088,9.99457 64.40098,19.98415 75.31772,50.59679 4.75431,31.59967 1.15712,74.54856 -18.87164,97.68037 -55.5506,3.19344 -103.60768,13.61759 -140.20799,59.78386 -56.92036,55.48885 34.03996,62.39306 46.70136,111.72456 -28.5449,15.1722 -68.71277,18.5103 -97.23473,2.2763 -28.33424,-37.605 -137.93334,-48.0937 -150.43427,-15.9931 2.26586,35.155 49.61815,44.9571 48.16944,81.6147 -24.60519,6.2058 -46.60438,20.8675 -72.98311,17.2502 z"
     id="path2987-5"
     style="fill:#000000"
     inkscape:connector-curvature="0" />
</svg>
